<?xml version="1.0" encoding="utf-8"?>
<!-- Generator: Adobe Illustrator 16.0.0, SVG Export Plug-In . SVG Version: 6.00 Build 0)  -->
<!DOCTYPE svg PUBLIC "-//W3C//DTD SVG 1.1//EN" "http://www.w3.org/Graphics/SVG/1.1/DTD/svg11.dtd">
<svg version="1.1" id="Layer_1" xmlns="http://www.w3.org/2000/svg" xmlns:xlink="http://www.w3.org/1999/xlink" x="0px" y="0px"
	 width="334px" height="162px" viewBox="0 0 334 162" style="enable-background:new 0 0 334 162;" xml:space="preserve">
<style type="text/css">
<![CDATA[
	.st0{fill-rule:evenodd;clip-rule:evenodd;fill:#3C2100;}
	.st1{fill-rule:evenodd;clip-rule:evenodd;fill:#D8853F;}
	.st2{fill-rule:evenodd;clip-rule:evenodd;fill:#FDE300;}
	.st3{fill-rule:evenodd;clip-rule:evenodd;fill:#FEA700;}
	.st4{fill-rule:evenodd;clip-rule:evenodd;fill:#FEB200;}
	.st5{fill-rule:evenodd;clip-rule:evenodd;fill:#FEB300;}
	.st6{fill-rule:evenodd;clip-rule:evenodd;fill:#FEB400;}
	.st7{fill-rule:evenodd;clip-rule:evenodd;fill:#FEBF00;}
	.st8{fill-rule:evenodd;clip-rule:evenodd;fill:#FEC100;}
	.st9{fill-rule:evenodd;clip-rule:evenodd;fill:#FEC300;}
	.st10{fill-rule:evenodd;clip-rule:evenodd;fill:#FEC500;}
	.st11{fill-rule:evenodd;clip-rule:evenodd;fill:#FEC600;}
	.st12{fill-rule:evenodd;clip-rule:evenodd;fill:#FECB00;}
	.st13{fill-rule:evenodd;clip-rule:evenodd;fill:#FED000;}
	.st14{fill-rule:evenodd;clip-rule:evenodd;fill:#FED300;}
	.st15{fill-rule:evenodd;clip-rule:evenodd;fill:#FED400;}
	.st16{fill-rule:evenodd;clip-rule:evenodd;fill:#FED700;}
	.st17{fill-rule:evenodd;clip-rule:evenodd;fill:#FED900;}
	.st18{fill-rule:evenodd;clip-rule:evenodd;fill:#FEE300;}
	.st19{fill-rule:evenodd;clip-rule:evenodd;fill:#FEE700;}
	.st20{fill-rule:evenodd;clip-rule:evenodd;fill:#FEF100;}
	.st21{fill-rule:evenodd;clip-rule:evenodd;fill:#CB5E00;}
	.st22{display:none;fill-rule:evenodd;clip-rule:evenodd;fill:#FEFEFE;}
]]>
</style>
<path class="st21" d="M278.16,8.574c0.48,0,0.961,0,1.441,0c0.398,0.19,0.799,0.19,1.199,0c2.16,0,4.32,0,6.48,0
	c0.48,0.189,0.959,0.189,1.439,0c0.48,0,0.961,0,1.439,0c2.014,0.249,4.045,0.252,6.064,0.396c3.293,0.234,6.465,1.052,9.605,1.983
	c4.621,1.37,9.066,3.197,13.074,5.892c4.365,2.935,7.488,6.911,9.266,11.908c0.574,1.611,0.654,3.294,0.719,4.955
	c0.111,2.832,0.137,5.676-0.248,8.496c-0.309,2.258-1.277,4.285-2.363,6.246c-1.74,3.148-3.363,6.359-5.078,9.521
	c-2.441,4.496-5.877,7.932-10.473,10.193c-0.215,0.107-0.432,0.209-0.643,0.324c-1.02,0.547-1.063,0.73-0.254,1.563
	c5.434,5.592,8.908,12.256,10.695,19.799c1.332,5.617,1.434,11.295,0.721,17.025c-1.213,9.764-4.881,18.518-10.729,26.352
	c-6.334,8.486-14.512,14.67-24.236,18.824c-5.361,2.291-10.92,3.893-16.684,4.727c-2.645,0.381-5.33,0.412-8,0.457
	c-5.551,0.096-11.111,0.133-16.646-0.367c-3.75-0.34-7.404-1.271-11.008-2.344c-6.092-1.813-11.896-4.24-16.992-8.145
	c-0.543-0.416-1.004-0.914-1.506-1.371c-0.83-0.756-1.053-0.762-1.672,0.188c-1.611,2.473-3.594,4.625-5.969,6.34
	c-3.945,2.848-8.332,4.514-13.289,4.477c-5.078-0.039-10.16,0.029-15.238-0.02c-5.627-0.055-10.516-2.059-14.756-5.738
	c-2.107-1.826-3.826-3.947-5.209-6.359c-0.57-0.994-0.654-0.988-1.195-0.051c-3.797,6.566-9.443,10.498-16.904,11.801
	c-1.135,0.197-2.287,0.359-3.453,0.359c-4.561-0.006-9.121,0.057-13.68-0.018c-6.35-0.105-12.031-2.08-16.678-6.512
	c-3.943-3.76-6.4-8.367-7.123-13.799c-0.521-3.916-0.646-7.875-1.014-11.809c-0.398-4.25-0.74-8.508-1.092-12.762
	c-0.279-3.381-0.537-6.766-0.818-10.146c-0.359-4.336-0.73-8.67-1.092-13.004c-0.275-3.301-0.555-6.604-0.801-9.908
	c-0.236-3.184-0.576-6.359-0.768-9.549c-0.025-0.432-0.07-0.986-0.652-0.975s-0.561,0.582-0.641,1.002
	c-1.143,6.047-2.201,12.109-3.287,18.166c-1.303,7.275-2.598,14.553-3.902,21.828c-1.678,9.359-3.291,18.732-5.051,28.078
	c-1.926,10.236-10.217,17.939-20.571,18.898c-6.408,0.594-12.873,0.619-19.276-0.063c-9.938-1.057-18.501-9.529-20.016-19.432
	c-0.577-3.775-0.104-7.473,0.572-11.189c2.902-15.961,5.755-31.93,8.599-47.9c0.49-2.754,0.961-5.512,1.489-8.258
	c0.281-1.461,0.094-1.744-1.417-1.676c-4.504,0.199-8.754-0.686-12.69-2.896c-5.266-2.959-8.929-7.301-10.936-13.002
	c-0.489-1.389-0.346-2.912-0.675-4.346c0-2.24,0-4.48,0-6.721c0.42-3.721,0.964-7.422,1.573-11.119
	C9.491,18.698,17.518,10.637,27.684,9.11C28.124,9.044,28.562,9.055,29,9.055c25.958-0.002,51.916,0,77.875-0.01
	c0.885,0,1.748,0.179,2.629,0.182c6.832,0.02,13.664-0.104,20.494,0.015c8.557,0.149,14.984,4.157,19.623,11.224
	c0.301,0.456,0.467,1.016,1.053,1.352c0.771-1.132,1.432-2.318,2.273-3.377c4.156-5.236,9.523-8.352,16.201-8.983
	c5.74-0.543,11.506-0.214,17.26-0.158c1.42,0.014,2.861,0.251,4.27,0.573c6.271,1.435,11.1,4.932,14.664,10.239
	c1.064,1.586,1.037,1.573,2.129-0.006c4.793-6.938,11.381-10.563,19.848-10.637c4.52-0.04,9.039-0.022,13.559-0.003
	c4.549,0.021,8.777,1.19,12.568,3.737c1.023,0.687,1.91,0.696,3.014,0.212c4.521-1.983,9.232-3.387,14.096-4.229
	c2.121-0.368,4.289-0.346,6.436-0.494C277.381,8.664,277.791,8.804,278.16,8.574z"/>
<path class="st22" d="M6.24,46.734c0.553,0.727,0.48,1.639,0.691,2.461c2.585,10.063,11.77,17.217,22.159,17.219
	c1,0,2.002,0.043,2.999-0.014c0.737-0.043,0.857,0.211,0.733,0.889c-1.313,7.188-2.604,14.379-3.894,21.572
	c-2.129,11.869-4.252,23.738-6.38,35.607c-0.528,2.947-1.089,5.875-0.969,8.91c0.411,10.359,8.69,19.744,18.925,21.369
	c1.505,0.24,3.013,0.375,4.534,0.346c5.074-0.098,10.154,0.365,15.223-0.086c10.148-0.906,18.6-8.717,20.385-18.715
	c3.24-18.16,6.518-36.313,9.773-54.469c0.84-4.678,1.674-9.355,2.477-14.037c0.139-0.809,0.338-1.219,1.316-1.219
	c1.031,0,0.961,0.611,1.012,1.227c0.834,10.193,1.652,20.389,2.492,30.584c0.836,10.154,1.688,20.309,2.541,30.461
	c0.244,2.902,0.277,5.83,0.953,8.684c2.441,10.328,11.328,17.615,21.93,17.783c5.473,0.086,10.969,0.385,16.422-0.096
	c8.502-0.748,14.662-5.18,18.617-12.715c0.164-0.313,0.227-0.689,0.607-0.943c1.35,2.975,3.148,5.619,5.566,7.822
	c4.451,4.055,9.688,6.092,15.699,6.115c4.879,0.02,9.766,0.158,14.637-0.029c8.283-0.32,14.604-4.18,18.938-11.219
	c0.627-1.018,0.881-0.9,1.627-0.166c3.945,3.896,8.805,6.316,13.914,8.238c8.686,3.268,17.701,4.75,26.979,4.836
	c9.652,0.092,19.074-1.225,28.033-4.865c18.529-7.535,30.865-20.73,35.563-40.389c2.99-12.514,1.51-24.527-5.592-35.551
	c-1.756-2.725-3.838-5.193-6.277-7.539c1.828-0.783,3.527-1.533,5.086-2.564c3.197-2.115,5.744-4.832,7.555-8.205
	c2.152-4.006,4.428-7.963,6.313-12.096c4.828-10.594,1.023-23.647-10.113-29.788c-6.703-3.695-13.885-5.795-21.416-6.877
	c-1.711-0.246-3.467-0.16-5.137-0.703c12.639,0,25.275,0.009,37.914-0.022c0.805-0.002,0.99,0.138,0.99,0.975
	c-0.025,48.951-0.027,97.902,0.004,146.853c0.002,0.932-0.271,1.014-1.07,1.014c-106.9-0.02-213.801-0.02-320.7,0.008
	c-0.948,0-1.079-0.268-1.079-1.127C6.243,119.76,6.24,83.248,6.24,46.734z"/>
<path class="st22" d="M278.16,8.574c-1.428,0.512-2.943,0.448-4.416,0.659c-6.203,0.889-12.191,2.515-17.908,5.09
	c-0.723,0.326-1.236,0.335-1.934-0.159c-4.367-3.094-9.299-4.245-14.596-4.163c-4.039,0.063-8.08-0.061-12.119,0.027
	c-8.867,0.195-15.557,4.176-20.086,11.797c-0.219,0.367-0.43,0.739-0.727,1.254c-1.17-2.248-2.453-4.246-4.119-5.967
	c-4.176-4.314-9.223-6.874-15.248-7.116c-5.469-0.219-10.957-0.398-16.422-0.09c-9.23,0.521-15.775,5.235-19.996,13.398
	c-0.342-0.178-0.398-0.588-0.572-0.908c-4.424-8.15-11.262-12.408-20.533-12.647c-3.598-0.093-7.199-0.007-10.799-0.016
	c-29.26-0.078-58.519-0.156-87.778-0.246c-2.138-0.006-4.235,0.252-6.257,0.916c-9.058,2.972-14.439,9.198-16.224,18.537
	c-0.637,3.332-1.173,6.686-1.795,10.021c-0.065,0.348,0.051,0.822-0.391,1.053c0-10.119,0.013-20.24-0.023-30.36
	C6.213,8.753,6.42,8.551,7.32,8.551C97.6,8.575,187.881,8.574,278.16,8.574z"/>
<path class="st1" d="M288.721,8.574c-0.48,0.341-0.959,0.342-1.439,0C287.762,8.574,288.24,8.574,288.721,8.574z"/>
<path class="st1" d="M280.801,8.574c-0.4,0.327-0.801,0.325-1.199,0C280,8.574,280.4,8.574,280.801,8.574z"/>
<path class="st0" d="M145.926,52.802c0.436-0.217,0.48-0.695,0.65-1.07c3.754-8.262,7.445-16.551,11.256-24.786
	c2.746-5.932,7.436-9.019,14.035-9.044c4.199-0.017,8.406,0.167,12.598-0.04c8.127-0.399,15.924,5.496,16.164,15.463
	c0.074,3.154,0.396,6.303,0.607,9.453c0.209,3.109,0.424,6.217,0.639,9.381c0.469-0.09,0.48-0.51,0.604-0.783
	c3.619-8.016,7.227-16.035,10.834-24.055c2.564-5.699,6.977-8.934,13.188-9.273c5.223-0.285,10.477-0.196,15.705,0.115
	c4.303,0.257,7.76,2.318,10.418,5.677c0.508,0.641,0.828,0.709,1.535,0.305c7.881-4.501,16.389-6.889,25.43-7.446
	c9.076-0.56,17.963,0.348,26.572,3.402c2.799,0.991,5.479,2.243,7.973,3.856c6.32,4.088,8.582,12.467,5.148,19.276
	c-1.871,3.711-3.814,7.389-5.82,11.029c-4.059,7.37-13.182,9.889-20.645,5.756c-4.506-2.494-9.318-3.217-14.379-2.494
	c-0.793,0.113-1.555,0.365-2.273,0.732c-0.313,0.158-0.771,0.268-0.797,0.645c-0.031,0.416,0.459,0.496,0.76,0.658
	c2.297,1.223,4.695,2.219,7.098,3.213c6.125,2.535,11.973,5.564,17.037,9.908c9.201,7.896,13.74,17.906,12.711,30.029
	c-1.789,21.041-13.438,34.777-32.648,42.406c-9.99,3.965-20.49,4.768-31.146,3.662c-7.818-0.811-15.348-2.666-22.373-6.289
	c-3.719-1.916-7.076-4.25-8.908-8.217c-1.992-4.318-2.047-8.674-0.031-12.982c1.742-3.73,3.578-7.418,5.426-11.096
	c4.02-8.008,14.008-10.67,21.662-5.826c5.529,3.498,11.564,4.693,18.021,3.799c1.512-0.211,2.961-0.672,4.24-1.557
	c0.568-0.393,1.029-0.877,1.387-1.473c0.418-0.697,0.406-1.182-0.398-1.645c-1.982-1.143-4.049-2.09-6.18-2.908
	c-7.445-2.857-14.436-6.492-20.34-11.969c-2.531-2.35-4.703-5-6.623-8.127c-0.656,1.371-1.24,2.574-1.811,3.783
	c-8.586,18.18-17.131,36.379-25.773,54.531c-2.727,5.725-7.445,8.623-13.791,8.715c-4.359,0.064-8.719-0.016-13.078-0.018
	c-8.928-0.006-15.232-6.08-15.719-15.02c-0.34-6.225-0.834-12.441-1.266-18.662c-0.031-0.428-0.121-0.852-0.232-1.623
	c-0.68,1.443-1.223,2.582-1.75,3.727c-3.453,7.477-6.848,14.979-10.367,22.422c-2.791,5.904-7.494,8.975-14.09,8.98
	c-4.758,0.004-9.52,0.072-14.277-0.047c-7.344-0.184-13.586-6.121-14.205-13.432c-0.984-11.629-1.922-23.262-2.889-34.891
	c-1.004-12.109-2.018-24.217-3.029-36.324c-0.086-1.035-0.199-2.07-0.256-3.107c-0.029-0.574-0.209-0.881-0.844-0.881
	c-4.84,0.012-9.68,0.018-14.52-0.002c-0.832-0.004-0.846,0.59-0.941,1.121c-0.75,4.168-1.482,8.34-2.23,12.508
	c-3.244,18.092-6.49,36.184-9.738,54.275c-0.5,2.793-0.988,5.588-1.512,8.375c-1.334,7.09-7.408,12.15-14.594,12.168
	c-4.399,0.01-8.799,0.002-13.199-0.002c-10.007-0.01-16.861-8.393-15.078-18.227c4.186-23.078,8.274-46.174,12.439-69.256
	c0.181-1.004-0.098-1.133-0.973-1.127c-3.959,0.023-7.919-0.012-11.878-0.02c-9.72-0.016-16.761-8.523-14.965-18.059
	c0.643-3.416,1.263-6.838,1.835-10.266c1.235-7.393,7.434-12.681,14.941-12.679c10.839,0.003,21.678,0.017,32.517,0.034
	c6.798,0.01,13.599-0.064,20.396,0.078c7.838,0.164,15.682-0.141,23.51,0.194c2.67,0.114,5.303,0.021,7.959-0.037
	c4.596-0.101,9.197-0.005,13.797,0.002c8.086,0.012,14.639,6.362,15.041,14.44c0.332,6.708,0.807,13.407,1.223,20.108
	C145.725,52.458,145.664,52.685,145.926,52.802z"/>
<path class="st20" d="M52.791,86.557c0.6-3.502,1.179-7.008,1.803-10.504c1.867-10.457,3.742-20.912,5.646-31.363
	c0.171-0.941-0.004-1.234-1.012-1.215c-3.199,0.061-6.399,0.031-9.599,0.02c-6.438-0.02-12.876-0.072-19.314-0.057
	c-0.969,0.002-1.108-0.254-0.929-1.152c0.571-2.857,1.109-5.725,1.537-8.607c0.154-1.04,0.56-1.252,1.535-1.249
	c14.357,0.072,28.714,0.109,43.071,0.143c10.08,0.023,20.158,0.027,30.238,0.043c1.486,0.002,1.496,0.004,1.242,1.418
	c-0.525,2.908-1.09,5.809-1.57,8.725c-0.115,0.701-0.348,0.914-1.053,0.91c-7.318-0.037-14.639-0.041-21.957-0.059
	c-2.52-0.006-5.039,0.006-7.559-0.053c-0.744-0.016-1.039,0.217-1.17,0.953c-2.475,13.918-4.968,27.834-7.464,41.748
	c-0.049,0.271-0.146,0.533-0.221,0.799c-0.334,0.363-0.772,0.359-1.215,0.359c-3.626-0.002-7.251,0.004-10.877-0.008
	C53.36,87.406,52.636,87.547,52.791,86.557z"/>
<path class="st20" d="M269.969,87.547c-5.297-1.928-10.496-4.061-15.078-7.434c-8.613-6.344-11.426-15.008-8.066-25.168
	c3.289-9.947,10.346-16.283,19.805-20.187c7.092-2.93,14.525-3.598,22.109-3.03c5.088,0.381,10.047,1.334,14.723,3.473
	c2.516,1.148,2.52,1.148,1.262,3.535c-1.283,2.436-2.605,4.852-3.838,7.314c-0.428,0.85-0.781,0.842-1.59,0.439
	c-8.82-4.395-18-5.779-27.492-2.609c-5.664,1.893-9.807,5.645-11.68,11.488c-1.961,6.113-0.293,11.088,4.863,14.883
	c3.734,2.746,7.979,4.502,12.221,6.262c4.924,2.041,9.676,4.389,13.727,7.936c0.961,0.84,1.916,1.693,2.627,2.771
	c-0.064,0.893-0.764,0.658-1.26,0.662c-3.191,0.023-6.381,0.012-9.572,0.012c-3.43,0-6.859-0.004-10.289,0.002
	C271.598,87.898,270.771,87.818,269.969,87.547z"/>
<path class="st20" d="M176.896,87.771c-0.23-2.703-0.502-5.402-0.684-8.109c-0.586-8.809-1.078-17.621-0.975-26.456
	c0.02-1.634,0.002-3.269,0.002-4.9c-0.395,0.07-0.332,0.58-0.445,0.898c-4.627,12.855-10.436,25.199-16.207,37.559
	c-0.049,0.107-0.135,0.197-0.203,0.295c-0.295,0.527-0.779,0.602-1.328,0.6c-2.941-0.008-5.885,0.002-8.826-0.012
	c-0.445-0.002-1.012,0.139-1.104-0.576c2.492-5.566,4.971-11.139,7.482-16.695c5.488-12.139,11.002-24.266,16.465-36.414
	c0.393-0.873,0.842-1.145,1.777-1.131c3.836,0.057,7.674,0.057,11.512,0c0.943-0.014,1.174,0.276,1.232,1.186
	c0.594,9.205,1.242,18.406,1.869,27.607c0.561,8.248,1.115,16.496,1.672,24.742c0.02,0.318,0.006,0.639,0.008,0.959
	c0.125,0.242,0.084,0.453-0.119,0.635c-0.135,0.086-0.283,0.158-0.443,0.158c-3.613,0.035-7.227,0.012-10.84,0.016
	C177.404,88.133,177.123,88.021,176.896,87.771z"/>
<path class="st3" d="M295.426,89.998c1.832,2.602,2.572,5.586,2.625,8.674c0.234,13.9-6.256,23.854-18.279,30.363
	c-6.299,3.41-13.168,4.793-20.279,5.086c-8.121,0.334-16.006-0.789-23.566-3.873c-1.336-0.545-2.6-1.223-3.826-1.98
	c-0.51-0.316-0.719-0.582-0.396-1.221c1.568-3.1,3.096-6.219,4.596-9.352c0.307-0.639,0.57-0.684,1.152-0.326
	c7.072,4.354,14.813,6.307,23.068,6.094c6.908-0.178,13.299-1.979,18.273-7.121c4.127-4.268,5.844-9.453,5.139-15.363
	c-0.436-3.643-2.564-6.307-5.359-8.482c-1.193-0.928-2.496-1.715-3.75-2.566c0.305-0.438,0.771-0.352,1.199-0.352
	c5.898-0.006,11.799,0.008,17.697-0.021C294.355,89.555,294.861,89.838,295.426,89.998z"/>
<path class="st3" d="M213.807,90.172c-2.258,4.844-4.5,9.695-6.777,14.529c-4.199,8.918-8.428,17.822-12.607,26.75
	c-0.395,0.842-0.842,1.162-1.793,1.139c-3.834-0.094-7.672-0.129-11.506-0.102c-0.943,0.006-1.221-0.309-1.279-1.189
	c-0.395-5.938-0.83-11.873-1.25-17.809c-0.547-7.768-1.09-15.537-1.631-23.307c-0.021-0.316-0.02-0.637-0.027-0.955
	c0.227-0.09,0.426,0.01,0.627,0.09c0.684,0.266,1.398,0.254,2.111,0.256c2.734,0.002,5.469-0.006,8.203,0.006
	c0.504,0.002,1.047-0.102,1.445,0.354c0.662,8.684,0.854,17.381,0.74,26.086c-0.004,0.424,0,0.848,0,1.387
	c0.504-0.357,0.537-0.822,0.682-1.201c3.295-8.689,6.994-17.211,10.691-25.732c0.094-0.215,0.236-0.41,0.357-0.613
	c3.688-0.102,7.375-0.02,11.064-0.043C213.217,89.814,213.582,89.813,213.807,90.172z"/>
<path class="st3" d="M132.947,89.455c0.443,4.375,0.551,8.768,0.721,13.158c0.18,4.59,0.268,9.184,0.4,13.777
	c0.008,0.301,0.07,0.602,0.289,0.938c0.338-0.912,0.676-1.826,1.018-2.74c3.059-8.197,6.602-16.191,10.172-24.174
	c0.08-0.178,0.205-0.336,0.309-0.502c0.35-0.324,0.777-0.34,1.223-0.34c2.93,0.004,5.859,0,8.791,0.006
	c0.428,0,0.889-0.072,1.174,0.381c-2.006,4.393-4.002,8.789-6.021,13.176c-4.326,9.393-8.674,18.773-12.977,28.176
	c-0.371,0.809-0.799,1.104-1.695,1.092c-3.838-0.051-7.678-0.063-11.516,0.006c-1.004,0.02-1.275-0.307-1.35-1.242
	c-0.482-6.174-1.016-12.346-1.527-18.518c-0.637-7.686-1.27-15.369-1.9-23.055c-0.016-0.197,0.002-0.398,0.004-0.598
	c3.813,0.215,7.629,0.043,11.441,0.1C132.01,89.104,132.553,88.986,132.947,89.455z"/>
<path class="st20" d="M120.016,87.77c-0.324-3.537-0.668-7.072-0.965-10.611c-0.783-9.354-1.545-18.709-2.316-28.063
	c-0.42-5.094-0.822-10.189-1.283-15.281c-0.082-0.915,0.158-1.159,1.07-1.143c3.996,0.074,7.992,0.1,11.988,0.082
	c0.807-0.004,1.016,0.286,1.061,1.02c0.645,10.721,1.307,21.441,1.971,32.162c0.393,6.338,0.799,12.674,1.195,19.012
	c0.023,0.357,0.016,0.719,0.021,1.078c0.148,0.387,0.061,0.789,0.08,1.186c0.037,0.705-0.336,1.031-1.01,1.033
	c-3.629,0.016-7.26,0.018-10.891,0.002C120.541,88.244,120.26,88.051,120.016,87.77z"/>
<path class="st20" d="M202.488,88.236c2.168-5.365,4.652-10.594,7.018-15.873c5.693-12.709,11.422-25.402,17.1-38.119
	c0.418-0.939,0.896-1.278,1.943-1.26c4.027,0.073,8.059,0.03,12.293,0.03c-1.146,2.443-2.205,4.707-3.273,6.967
	c-7.428,15.734-14.857,31.467-22.289,47.199c-0.17,0.359-0.365,0.709-0.547,1.064c-0.506,0.465-1.123,0.563-1.779,0.564
	c-2.955,0.014-5.91,0.029-8.865-0.012C203.512,88.787,202.855,88.895,202.488,88.236z"/>
<path class="st3" d="M65.539,89.693c-0.408,3.572-1.185,7.08-1.806,10.613c-1.775,10.1-3.634,20.184-5.395,30.285
	c-0.21,1.207-0.576,1.623-1.859,1.586c-3.633-0.105-7.271-0.059-10.907-0.021c-0.836,0.01-1.022-0.258-0.88-1.045
	c2.502-13.859,4.986-27.725,7.479-41.586c0.021-0.113,0.093-0.219,0.141-0.326c0.9,0.24,1.82,0.125,2.73,0.129
	c3.062,0.016,6.124,0.002,9.186,0.012C64.688,89.34,65.201,89.215,65.539,89.693z"/>
<path class="st19" d="M269.969,87.547c7.332-0.004,14.664-0.006,21.996-0.016c0.547-0.002,1.129,0.125,1.596-0.311
	c0.352,0.264,0.594,0.611,0.783,1.002c-0.334,0.477-0.848,0.385-1.314,0.385c-6.434,0.012-12.867,0.008-19.301,0.008
	c-0.727,0-1.428-0.143-2.123-0.332C271.018,88.131,270.471,87.891,269.969,87.547z"/>
<path class="st7" d="M295.426,89.998c-0.869,0.326-1.715-0.092-2.582-0.086c-6.006,0.043-12.014,0.02-18.021,0.018
	c-0.465-0.154-0.898-0.363-1.262-0.699c0.342-0.463,0.854-0.369,1.318-0.369c6.254-0.01,12.51-0.008,18.766-0.006
	c0.482,0.002,0.961,0.006,1.355,0.346C295.143,89.467,295.283,89.732,295.426,89.998z"/>
<path class="st9" d="M202.488,88.236c4.08,0.002,8.162,0.006,12.244,0.008c-0.201,0.41-0.4,0.82-0.602,1.23
	c-0.293,0.221-0.613,0.34-0.988,0.34c-3.369,0-6.738,0.004-10.105-0.008c-0.428,0-0.912,0.029-0.963-0.602
	C202.127,88.846,202.25,88.518,202.488,88.236z"/>
<path class="st13" d="M120.016,87.77c3.594,0.002,7.186,0.002,10.779,0.002c1.826,0.002,1.826,0,1.963-1.746
	c0.219,0.893,0.211,1.799,0.166,2.707c-0.32,0.404-0.771,0.361-1.211,0.361c-3.439,0.002-6.879-0.002-10.318,0.004
	c-0.492,0.002-0.957-0.039-1.354-0.365C120.031,88.412,120.023,88.09,120.016,87.77z"/>
<path class="st16" d="M271.605,88.283c6.822-0.01,13.643-0.018,20.465-0.031c0.758,0,1.516-0.02,2.273-0.029
	c0.053,0.078,0.105,0.158,0.158,0.238c-0.047,0.607-0.527,0.504-0.893,0.504c-6.654,0.012-13.309,0.018-19.965,0
	c-0.357-0.002-0.711-0.074-1.045-0.213C272.23,88.674,271.885,88.551,271.605,88.283z"/>
<path class="st12" d="M272.6,88.752c6.764-0.006,13.529-0.01,20.293-0.021c0.547-0.002,1.125,0.125,1.609-0.27
	c0.262,0.182,0.42,0.434,0.498,0.74c-7.146,0.01-14.293,0.02-21.439,0.029C273.191,89.168,272.867,89.018,272.6,88.752z"/>
<path class="st18" d="M52.791,86.557c0.268,0.654,0.852,0.49,1.346,0.492c3.959,0.012,7.919,0.006,11.879,0.008
	c-0.025,0.238-0.053,0.477-0.078,0.715c-0.377,0.387-0.87,0.359-1.348,0.359c-3.561,0.006-7.12,0.006-10.68,0
	c-0.477,0-0.972,0.045-1.345-0.357C52.558,87.352,52.536,86.93,52.791,86.557z"/>
<path class="st10" d="M65.807,88.271c-0.029,0.232-0.059,0.467-0.088,0.701c-0.362,0.422-0.854,0.361-1.326,0.361
	c-3.575,0.002-7.149,0.002-10.723,0c-0.472,0-0.967,0.068-1.324-0.361c-0.033-0.35-0.033-0.693,0.187-0.998
	c3.932,0.092,7.865,0.008,11.796,0.047C64.827,88.027,65.371,87.859,65.807,88.271z"/>
<path class="st6" d="M52.346,88.973c4.458,0,8.915,0,13.374,0c0.051,0.268-0.025,0.504-0.18,0.721
	c-3.964,0-7.929,0.004-11.895-0.006c-0.49,0-1.068,0.158-1.333-0.488C52.286,89.117,52.297,89.043,52.346,88.973z"/>
<path class="st7" d="M120.041,88.732c4.295,0,8.588,0,12.883,0c0.008,0.24,0.016,0.482,0.023,0.723c-3.785,0-7.572,0-11.357,0
	c-0.557,0-1.133,0.072-1.529-0.459C120.055,88.908,120.047,88.82,120.041,88.732z"/>
<path class="st17" d="M176.896,87.771c4.051-0.004,8.1-0.008,12.15-0.012c0.301,0.264,0.229,0.547,0.045,0.836
	c-0.373,0.314-0.826,0.254-1.26,0.254c-3.193,0.008-6.385,0.008-9.578,0.002c-0.473-0.002-0.971,0.055-1.338-0.359
	C176.91,88.252,176.902,88.012,176.896,87.771z"/>
<path class="st4" d="M202.074,89.205c0.457,0.35,0.994,0.244,1.506,0.246c3.516,0.014,7.033,0.018,10.551,0.023
	c-0.107,0.232-0.215,0.465-0.324,0.697c-3.512,0.002-7.023,0.004-10.535,0c-0.512-0.002-1.049,0.092-1.479-0.313
	C201.822,89.615,201.848,89.367,202.074,89.205z"/>
<path class="st2" d="M147.127,87.07c0.145,0.063,0.289,0.178,0.434,0.18c3.42,0.008,6.842,0.008,10.262-0.004
	c0.188-0.002,0.375-0.123,0.563-0.188c-0.068,0.359-0.199,0.689-0.457,0.959c-0.359,0.299-0.787,0.352-1.232,0.354
	c-2.9,0.006-5.801,0.018-8.699-0.014c-0.459-0.004-1.115,0.176-1.152-0.648C146.867,87.465,146.918,87.232,147.127,87.07z"/>
<path class="st11" d="M146.17,89.217c0.059-0.373,0.188-0.715,0.447-0.998c3.236,0.082,6.475,0.008,9.711,0.043
	c0.465,0.004,0.969-0.143,1.373,0.24c-0.1,0.236-0.199,0.473-0.299,0.711c-0.395,0.32-0.855,0.367-1.346,0.365
	c-2.896-0.008-5.795,0-8.691-0.006C146.936,89.572,146.475,89.645,146.17,89.217z"/>
<path class="st6" d="M146.17,89.217c3.744-0.002,7.488-0.004,11.232-0.004c-0.121,0.248-0.24,0.498-0.359,0.746
	c-3.729-0.016-7.459-0.031-11.188-0.047C145.891,89.648,145.957,89.398,146.17,89.217z"/>
<path class="st14" d="M65.807,88.271c-3.93-0.006-7.86-0.008-11.791-0.02c-0.508-0.002-1.042,0.098-1.484-0.277
	c-0.034-0.074-0.022-0.141,0.033-0.201c4.458,0,8.915-0.002,13.373-0.002C65.895,87.938,65.852,88.104,65.807,88.271z"/>
<path class="st5" d="M189.082,88.484c-0.012-0.242-0.021-0.484-0.035-0.725c0.033-0.146,0.066-0.291,0.098-0.436
	c0.232,0.857,0.205,1.734,0.178,2.609c-3.617,0-7.234,0.008-10.852-0.008c-0.482-0.002-1.076,0.195-1.33-0.48
	c0.395-0.475,0.945-0.342,1.445-0.344c2.664-0.016,5.326-0.006,7.99-0.008c0.678,0,1.354-0.01,2-0.252
	C188.785,88.781,188.941,88.643,189.082,88.484z"/>
<path class="st12" d="M189.082,88.484c0.002,0.16,0.004,0.32,0.006,0.48c-0.289,0.277-0.658,0.246-1.012,0.246
	c-3.377,0.006-6.754,0.006-10.131,0.002c-0.359,0-0.719-0.01-1.023-0.24c-0.002-0.16-0.004-0.32-0.006-0.48
	C180.971,88.49,185.027,88.486,189.082,88.484z"/>
<path class="st8" d="M176.922,88.973c4.055-0.002,8.111-0.004,12.166-0.008c-0.244,0.697-0.848,0.479-1.322,0.48
	c-3.543,0.014-7.084,0.004-10.625,0c-0.068-0.072-0.137-0.145-0.205-0.217C176.93,89.143,176.926,89.059,176.922,88.973z"/>
<path class="st15" d="M157.701,88.502c-3.197-0.002-6.393-0.002-9.59-0.01c-0.51-0.002-1.049,0.102-1.494-0.273
	c0.012-0.199,0.039-0.391,0.227-0.51c0.434,0.4,0.975,0.301,1.484,0.303c3.201,0.006,6.4,0.004,9.6,0.006
	C157.852,88.178,157.775,88.34,157.701,88.502z"/>
</svg>
